%TF.GenerationSoftware,KiCad,Pcbnew,(5.1.7)-1*%
%TF.CreationDate,2020-10-26T20:10:13+01:00*%
%TF.ProjectId,geiger_counter,67656967-6572-45f6-936f-756e7465722e,rev?*%
%TF.SameCoordinates,Original*%
%TF.FileFunction,Copper,L1,Top*%
%TF.FilePolarity,Positive*%
%FSLAX46Y46*%
G04 Gerber Fmt 4.6, Leading zero omitted, Abs format (unit mm)*
G04 Created by KiCad (PCBNEW (5.1.7)-1) date 2020-10-26 20:10:13*
%MOMM*%
%LPD*%
G01*
G04 APERTURE LIST*
%TA.AperFunction,ComponentPad*%
%ADD10O,1.600000X1.600000*%
%TD*%
%TA.AperFunction,ComponentPad*%
%ADD11C,1.600000*%
%TD*%
%TA.AperFunction,ComponentPad*%
%ADD12R,1.500000X1.050000*%
%TD*%
%TA.AperFunction,ComponentPad*%
%ADD13O,1.500000X1.050000*%
%TD*%
%TA.AperFunction,ComponentPad*%
%ADD14O,1.000000X1.000000*%
%TD*%
%TA.AperFunction,ComponentPad*%
%ADD15R,1.000000X1.000000*%
%TD*%
%TA.AperFunction,ComponentPad*%
%ADD16C,2.000000*%
%TD*%
%TA.AperFunction,ComponentPad*%
%ADD17R,2.000000X2.000000*%
%TD*%
%TA.AperFunction,ComponentPad*%
%ADD18C,1.800000*%
%TD*%
%TA.AperFunction,ComponentPad*%
%ADD19R,1.800000X1.800000*%
%TD*%
%TA.AperFunction,ComponentPad*%
%ADD20O,1.070000X1.800000*%
%TD*%
%TA.AperFunction,ComponentPad*%
%ADD21R,1.070000X1.800000*%
%TD*%
%TA.AperFunction,Conductor*%
%ADD22C,0.250000*%
%TD*%
G04 APERTURE END LIST*
D10*
%TO.P, ,2*%
%TO.N,N/C*%
X177165000Y-31750000D03*
D11*
%TO.P, ,1*%
X169545000Y-31750000D03*
%TD*%
D12*
%TO.P, ,1*%
%TO.N,N/C*%
X177165000Y-36830000D03*
D13*
%TO.P, ,3*%
X177165000Y-39370000D03*
%TO.P, ,2*%
X177165000Y-38100000D03*
%TD*%
D10*
%TO.P, ,2*%
%TO.N,N/C*%
X205740000Y-41910000D03*
D11*
%TO.P, ,1*%
X198120000Y-41910000D03*
%TD*%
D10*
%TO.P, ,2*%
%TO.N,N/C*%
X205740000Y-38100000D03*
D11*
%TO.P, ,1*%
X198120000Y-38100000D03*
%TD*%
D10*
%TO.P, ,2*%
%TO.N,N/C*%
X205740000Y-34290000D03*
D11*
%TO.P, ,1*%
X198120000Y-34290000D03*
%TD*%
D10*
%TO.P, ,2*%
%TO.N,N/C*%
X205740000Y-30480000D03*
D11*
%TO.P, ,1*%
X198120000Y-30480000D03*
%TD*%
D14*
%TO.P, ,6*%
%TO.N,N/C*%
X164465000Y-35560000D03*
%TO.P, ,5*%
X164465000Y-34290000D03*
%TO.P, ,4*%
X164465000Y-33020000D03*
%TO.P, ,3*%
X164465000Y-31750000D03*
%TO.P, ,2*%
X164465000Y-30480000D03*
D15*
%TO.P, ,1*%
X164465000Y-29210000D03*
%TD*%
D16*
%TO.P, ,2*%
%TO.N,N/C*%
X191750000Y-34925000D03*
D17*
%TO.P, ,1*%
X184150000Y-34925000D03*
%TD*%
D18*
%TO.P, ,2*%
%TO.N,N/C*%
X209550000Y-36195000D03*
D19*
%TO.P, ,1*%
X212090000Y-36195000D03*
%TD*%
D20*
%TO.P,REF\u002A\u002A,4*%
%TO.N,N/C*%
X220980000Y-36195000D03*
%TO.P,REF\u002A\u002A,3*%
X219710000Y-36195000D03*
%TO.P,REF\u002A\u002A,2*%
X218440000Y-36195000D03*
D21*
%TO.P,REF\u002A\u002A,1*%
X217170000Y-36195000D03*
%TD*%
D22*
%TO.N,*%
X217170000Y-36195000D02*
X214630000Y-36195000D01*
X208280000Y-38735000D02*
X213360000Y-38735000D01*
X213360000Y-38735000D02*
X214630000Y-37465000D01*
X214630000Y-37465000D02*
X214630000Y-36195000D01*
X219710000Y-36195000D02*
X219710000Y-32385000D01*
X219710000Y-32385000D02*
X212090000Y-32385000D01*
X212090000Y-36195000D02*
X212090000Y-32385000D01*
X212090000Y-27940000D02*
X212090000Y-32385000D01*
X209550000Y-36195000D02*
X209550000Y-30480000D01*
X209550000Y-30480000D02*
X205740000Y-30480000D01*
X205740000Y-34290000D02*
X208280000Y-34290000D01*
X208280000Y-34290000D02*
X208280000Y-38735000D01*
X207645000Y-40005000D02*
X205740000Y-38100000D01*
X214630000Y-38735000D02*
X213360000Y-40005000D01*
X213360000Y-40005000D02*
X207645000Y-40005000D01*
X218440000Y-38735000D02*
X214630000Y-38735000D01*
X218440000Y-36195000D02*
X218440000Y-38735000D01*
X220980000Y-38735000D02*
X220980000Y-36195000D01*
X219710000Y-40005000D02*
X220980000Y-38735000D01*
X212725000Y-41910000D02*
X214630000Y-40005000D01*
X214630000Y-40005000D02*
X219710000Y-40005000D01*
X205740000Y-41910000D02*
X212725000Y-41910000D01*
X177165000Y-31750000D02*
X177165000Y-34290000D01*
X177165000Y-34290000D02*
X173990000Y-34290000D01*
X173990000Y-34290000D02*
X173990000Y-38100000D01*
X173990000Y-38100000D02*
X177165000Y-38100000D01*
X177165000Y-36830000D02*
X179705000Y-36830000D01*
X179705000Y-36830000D02*
X179705000Y-29210000D01*
X179705000Y-29210000D02*
X167005000Y-29210000D01*
X184150000Y-34925000D02*
X184150000Y-27940000D01*
X184150000Y-27940000D02*
X212090000Y-27940000D01*
X198120000Y-30480000D02*
X191770000Y-30480000D01*
X191770000Y-34905000D02*
X191750000Y-34925000D01*
X191770000Y-30480000D02*
X191770000Y-34905000D01*
X177165000Y-39370000D02*
X188595000Y-39370000D01*
X188595000Y-30480000D02*
X191770000Y-30480000D01*
X191750000Y-34925000D02*
X188595000Y-34925000D01*
X188595000Y-34925000D02*
X188595000Y-30480000D01*
X188595000Y-39370000D02*
X188595000Y-34925000D01*
X184150000Y-27940000D02*
X164465000Y-27940000D01*
X169545000Y-31750000D02*
X164465000Y-31750000D01*
X164465000Y-27940000D02*
X164465000Y-29210000D01*
X164465000Y-30480000D02*
X167005000Y-30480000D01*
X167005000Y-30480000D02*
X167005000Y-29210000D01*
X167640000Y-33020000D02*
X164465000Y-33020000D01*
X167640000Y-34290000D02*
X167640000Y-33020000D01*
X172720000Y-34290000D02*
X167640000Y-34290000D01*
X172720000Y-39370000D02*
X172720000Y-34290000D01*
X174625000Y-39370000D02*
X172720000Y-39370000D01*
X174625000Y-41275000D02*
X174625000Y-39370000D01*
X194945000Y-41275000D02*
X174625000Y-41275000D01*
X194945000Y-34290000D02*
X194945000Y-41275000D01*
X198120000Y-34290000D02*
X194945000Y-34290000D01*
X196215000Y-38100000D02*
X198120000Y-38100000D01*
X196215000Y-42545000D02*
X196215000Y-38100000D01*
X173355000Y-42545000D02*
X196215000Y-42545000D01*
X173355000Y-40640000D02*
X173355000Y-42545000D01*
X171450000Y-40640000D02*
X173355000Y-40640000D01*
X171450000Y-35560000D02*
X171450000Y-40640000D01*
X166370000Y-35560000D02*
X171450000Y-35560000D01*
X166370000Y-34290000D02*
X166370000Y-35560000D01*
X164465000Y-34290000D02*
X166370000Y-34290000D01*
X164465000Y-36830000D02*
X164465000Y-35560000D01*
X170180000Y-41910000D02*
X170180000Y-36830000D01*
X172085000Y-43815000D02*
X172085000Y-41910000D01*
X172085000Y-41910000D02*
X170180000Y-41910000D01*
X198120000Y-43815000D02*
X172085000Y-43815000D01*
X170180000Y-36830000D02*
X164465000Y-36830000D01*
X198120000Y-41910000D02*
X198120000Y-43815000D01*
%TD*%
M02*
