%TF.GenerationSoftware,KiCad,Pcbnew,(5.1.7)-1*%
%TF.CreationDate,2020-10-26T20:10:13+01:00*%
%TF.ProjectId,geiger_counter,67656967-6572-45f6-936f-756e7465722e,rev?*%
%TF.SameCoordinates,Original*%
%TF.FileFunction,Legend,Top*%
%TF.FilePolarity,Positive*%
%FSLAX46Y46*%
G04 Gerber Fmt 4.6, Leading zero omitted, Abs format (unit mm)*
G04 Created by KiCad (PCBNEW (5.1.7)-1) date 2020-10-26 20:10:13*
%MOMM*%
%LPD*%
G01*
G04 APERTURE LIST*
%ADD10C,0.120000*%
%ADD11C,0.150000*%
G04 APERTURE END LIST*
D10*
%TO.C, *%
X176625000Y-33120000D02*
X176625000Y-32790000D01*
X170085000Y-33120000D02*
X176625000Y-33120000D01*
X170085000Y-32790000D02*
X170085000Y-33120000D01*
X176625000Y-30380000D02*
X176625000Y-30710000D01*
X170085000Y-30380000D02*
X176625000Y-30380000D01*
X170085000Y-30710000D02*
X170085000Y-30380000D01*
X175465000Y-36080000D02*
X175465000Y-39930000D01*
X175474878Y-39968611D02*
G75*
G03*
X175465000Y-36080000I1690122J1948611D01*
G01*
X205200000Y-43280000D02*
X205200000Y-42950000D01*
X198660000Y-43280000D02*
X205200000Y-43280000D01*
X198660000Y-42950000D02*
X198660000Y-43280000D01*
X205200000Y-40540000D02*
X205200000Y-40870000D01*
X198660000Y-40540000D02*
X205200000Y-40540000D01*
X198660000Y-40870000D02*
X198660000Y-40540000D01*
X205200000Y-39470000D02*
X205200000Y-39140000D01*
X198660000Y-39470000D02*
X205200000Y-39470000D01*
X198660000Y-39140000D02*
X198660000Y-39470000D01*
X205200000Y-36730000D02*
X205200000Y-37060000D01*
X198660000Y-36730000D02*
X205200000Y-36730000D01*
X198660000Y-37060000D02*
X198660000Y-36730000D01*
X205200000Y-35660000D02*
X205200000Y-35330000D01*
X198660000Y-35660000D02*
X205200000Y-35660000D01*
X198660000Y-35330000D02*
X198660000Y-35660000D01*
X205200000Y-32920000D02*
X205200000Y-33250000D01*
X198660000Y-32920000D02*
X205200000Y-32920000D01*
X198660000Y-33250000D02*
X198660000Y-32920000D01*
X205200000Y-31850000D02*
X205200000Y-31520000D01*
X198660000Y-31850000D02*
X205200000Y-31850000D01*
X198660000Y-31520000D02*
X198660000Y-31850000D01*
X205200000Y-29110000D02*
X205200000Y-29440000D01*
X198660000Y-29110000D02*
X205200000Y-29110000D01*
X198660000Y-29440000D02*
X198660000Y-29110000D01*
X164465000Y-28450000D02*
X165795000Y-28450000D01*
X165795000Y-28450000D02*
X165795000Y-29210000D01*
X165795000Y-29845000D02*
X165795000Y-36255000D01*
X164772530Y-36255000D02*
X165795000Y-36255000D01*
X163135000Y-36255000D02*
X164157470Y-36255000D01*
X163135000Y-29845000D02*
X163135000Y-36255000D01*
X165225000Y-29845000D02*
X165795000Y-29845000D01*
X163135000Y-29845000D02*
X163705000Y-29845000D01*
X194050000Y-34925000D02*
G75*
G03*
X194050000Y-34925000I-6100000J0D01*
G01*
X212290000Y-35115000D02*
X212290000Y-34935000D01*
X212290000Y-37455000D02*
X212290000Y-37275000D01*
X212410000Y-35115000D02*
X212410000Y-34935000D01*
X212410000Y-37455000D02*
X212410000Y-37275000D01*
X209110000Y-35100000D02*
X209110000Y-34935000D01*
X209110000Y-37455000D02*
X209110000Y-37290000D01*
X212530000Y-35115000D02*
X212530000Y-34935000D01*
X212530000Y-37455000D02*
X212530000Y-37275000D01*
X212530000Y-34935000D02*
X209110000Y-34935000D01*
X212530000Y-37455000D02*
X209110000Y-37455000D01*
%TO.C,REF\u002A\u002A*%
X216515000Y-37275000D02*
X216515000Y-37740000D01*
X216515000Y-34650000D02*
X216515000Y-35115000D01*
X221329479Y-37275429D02*
G75*
G02*
X216820316Y-37275000I-2254479J1080429D01*
G01*
X221329479Y-35114571D02*
G75*
G03*
X216820316Y-35115000I-2254479J-1080429D01*
G01*
X221862815Y-37275827D02*
G75*
G02*
X216515000Y-37739830I-2787815J1080827D01*
G01*
X221862815Y-35114173D02*
G75*
G03*
X216515000Y-34650170I-2787815J-1080827D01*
G01*
%TO.C, *%
D11*
X183759047Y-32456428D02*
X184520952Y-32456428D01*
X184140000Y-32837380D02*
X184140000Y-32075476D01*
%TO.C,REF\u002A\u002A*%
X217741666Y-32687380D02*
X217408333Y-32211190D01*
X217170238Y-32687380D02*
X217170238Y-31687380D01*
X217551190Y-31687380D01*
X217646428Y-31735000D01*
X217694047Y-31782619D01*
X217741666Y-31877857D01*
X217741666Y-32020714D01*
X217694047Y-32115952D01*
X217646428Y-32163571D01*
X217551190Y-32211190D01*
X217170238Y-32211190D01*
X218170238Y-32163571D02*
X218503571Y-32163571D01*
X218646428Y-32687380D02*
X218170238Y-32687380D01*
X218170238Y-31687380D01*
X218646428Y-31687380D01*
X219408333Y-32163571D02*
X219075000Y-32163571D01*
X219075000Y-32687380D02*
X219075000Y-31687380D01*
X219551190Y-31687380D01*
X220075000Y-31687380D02*
X220075000Y-31925476D01*
X219836904Y-31830238D02*
X220075000Y-31925476D01*
X220313095Y-31830238D01*
X219932142Y-32115952D02*
X220075000Y-31925476D01*
X220217857Y-32115952D01*
X220836904Y-31687380D02*
X220836904Y-31925476D01*
X220598809Y-31830238D02*
X220836904Y-31925476D01*
X221075000Y-31830238D01*
X220694047Y-32115952D02*
X220836904Y-31925476D01*
X220979761Y-32115952D01*
%TD*%
M02*
