M48
; DRILL file {KiCad (5.1.7)-1} date 10/26/20 20:10:10
; FORMAT={-:-/ absolute / inch / decimal}
; #@! TF.CreationDate,2020-10-26T20:10:10+01:00
; #@! TF.GenerationSoftware,Kicad,Pcbnew,(5.1.7)-1
; #@! TF.FileFunction,Plated,1,2,PTH
FMAT,2
INCH
T1C0.0276
T2C0.0295
T3C0.0315
T4C0.0354
T5C0.0394
%
G90
G05
T1
X6.475Y-1.15
X6.475Y-1.2
X6.475Y-1.25
X6.475Y-1.3
X6.475Y-1.35
X6.475Y-1.4
T2
X6.975Y-1.45
X6.975Y-1.5
X6.975Y-1.55
T3
X7.8Y-1.5
X8.1Y-1.5
X6.675Y-1.25
X6.975Y-1.25
X7.8Y-1.2
X8.1Y-1.2
X7.8Y-1.65
X8.1Y-1.65
X7.8Y-1.35
X8.1Y-1.35
T4
X8.25Y-1.425
X8.35Y-1.425
X8.55Y-1.425
X8.6Y-1.425
X8.65Y-1.425
X8.7Y-1.425
T5
X7.25Y-1.375
X7.5492Y-1.375
T0
M30
